HIERARCHY
ROOT Hips
{
	OFFSET -0.001795 -0.223333 0.028219
	CHANNELS 6 Xposition Yposition Zposition Zrotation Yrotation Xrotation 
	JOINT LeftUpLeg
	{
		OFFSET 0.069520 -0.091406 -0.006815
		CHANNELS 3 Zrotation Yrotation Xrotation
		JOINT LeftLeg
		{
			OFFSET 0.034277 -0.375199 -0.004496
			CHANNELS 3 Zrotation Yrotation Xrotation
			JOINT LeftFoot
			{
				OFFSET -0.013596 -0.397961 -0.043693
				CHANNELS 3 Zrotation Yrotation Xrotation
				JOINT LeftToe
				{
					OFFSET 0.026358 -0.055791 0.119288
					CHANNELS 3 Zrotation Yrotation Xrotation
					End Site
					{
						OFFSET 0.000000 0.000000 0.000000
					}
				}
			}
		}
	}
	JOINT RightUpLeg
	{
		OFFSET -0.067670 -0.090522 -0.004320
		CHANNELS 3 Zrotation Yrotation Xrotation
		JOINT RightLeg
		{
			OFFSET -0.038290 -0.382569 -0.008850
			CHANNELS 3 Zrotation Yrotation Xrotation
			JOINT RightFoot
			{
				OFFSET 0.015774 -0.398415 -0.042312
				CHANNELS 3 Zrotation Yrotation Xrotation
				JOINT RightToe
				{
					OFFSET -0.025372 -0.048144 0.123348
					CHANNELS 3 Zrotation Yrotation Xrotation
					End Site
					{
						OFFSET 0.000000 0.000000 0.000000
					}
				}
			}
		}
	}
	JOINT Spine
	{
		OFFSET -0.002533 0.108963 -0.026696
		CHANNELS 3 Zrotation Yrotation Xrotation
		JOINT Spine1
		{
			OFFSET 0.005487 0.135180 0.001092
			CHANNELS 3 Zrotation Yrotation Xrotation
			JOINT Spine2
			{
				OFFSET 0.001457 0.052922 0.025425
				CHANNELS 3 Zrotation Yrotation Xrotation
				JOINT Neck
				{
					OFFSET -0.002778 0.213870 -0.042857
					CHANNELS 3 Zrotation Yrotation Xrotation
					JOINT Head
					{
						OFFSET 0.005152 0.064970 0.051349
						CHANNELS 3 Zrotation Yrotation Xrotation
						End Site
						{
							OFFSET 0.000000 0.000000 0.000000
						}
					}
				}
				JOINT LeftShoulder
				{
					OFFSET 0.078845 0.121749 -0.034090
					CHANNELS 3 Zrotation Yrotation Xrotation
					JOINT LeftArm
					{
						OFFSET 0.090977 0.030469 -0.008868
						CHANNELS 3 Zrotation Yrotation Xrotation
						JOINT LeftForeArm
						{
							OFFSET 0.259612 -0.012772 -0.027456
							CHANNELS 3 Zrotation Yrotation Xrotation
							JOINT LeftHand
							{
								OFFSET 0.249234 0.008986 -0.001171
								CHANNELS 3 Zrotation Yrotation Xrotation
								End Site
								{
									OFFSET 0.000000 0.000000 0.000000
								}
							}
						}
					}
				}
				JOINT RightShoulder
				{
					OFFSET -0.081759 0.118833 -0.038615
					CHANNELS 3 Zrotation Yrotation Xrotation
					JOINT RightArm
					{
						OFFSET -0.096012 0.032551 -0.009143
						CHANNELS 3 Zrotation Yrotation Xrotation
						JOINT RightForeArm
						{
							OFFSET -0.253742 -0.013329 -0.021401
							CHANNELS 3 Zrotation Yrotation Xrotation
							JOINT RightHand
							{
								OFFSET -0.255298 0.007772 -0.005559
								CHANNELS 3 Zrotation Yrotation Xrotation
								End Site
								{
									OFFSET 0.000000 0.000000 0.000000
								}
							}
						}
					}
				}
			}
		}
	}
}
MOTION
Frames: 15
Frame Time: 0.050000
-0.010882 0.961164 0.024392 0.496592 -6.407724 9.702223 4.505432 -0.402585 -5.910298 -0.113234 0.182135 -5.022719 -0.546223 5.082993 20.618272 0.000000 0.000000 0.000000 -3.836756 0.725182 -7.500392 -7.669825 0.238748 -4.624066 7.684802 7.341327 14.734779 0.000000 0.000000 0.000000 5.232309 0.512336 -7.467911 -1.007626 0.482269 -1.246155 -8.964078 9.719537 -0.731845 17.294479 -10.151249 -10.891871 0.000000 0.000000 0.000000 -5.384597 -18.843108 5.946818 -31.797947 -34.602559 5.035101 27.738741 -66.125709 -17.933271 0.000000 0.000000 0.000000 10.372347 14.315683 6.942238 30.066499 25.079399 2.659841 -10.449810 38.334460 -1.403691 0.000000 0.000000 0.000000 
-0.011113 0.960898 0.025147 0.414067 -6.495857 9.381955 4.893419 -0.362109 -5.418026 -0.642809 0.225423 -5.132169 -0.517432 5.089363 20.530447 0.000000 0.000000 0.000000 -3.862678 0.721165 -7.475930 -7.557424 0.286345 -4.091464 7.859138 7.700780 14.669950 0.000000 0.000000 0.000000 5.118783 0.525724 -7.565070 -0.668349 0.330053 -0.659179 -9.182796 10.276034 -1.057995 17.299491 -10.158980 -10.772457 0.000000 0.000000 0.000000 -7.817194 -19.020586 5.881264 -36.225748 -30.911194 5.088497 13.951587 -63.833532 -8.587237 0.000000 0.000000 0.000000 12.464444 14.223731 7.337584 34.769908 24.267027 3.093431 -9.212261 40.960909 -1.010230 0.000000 0.000000 0.000000 
-0.011264 0.960909 0.026471 0.081328 -6.709598 9.586335 5.330109 -0.352405 -5.539783 -0.809059 0.234231 -5.008031 -0.358624 5.256249 20.464192 0.000000 0.000000 0.000000 -3.637677 0.734211 -7.598284 -7.281420 0.260090 -4.155461 7.926890 7.713901 14.787932 0.000000 0.000000 0.000000 5.126857 0.571145 -8.013348 -0.505028 0.256683 -0.217745 -8.926299 10.366854 -0.894698 16.992323 -9.808701 -11.209341 0.000000 0.000000 0.000000 -10.139570 -17.942593 5.366502 -39.726427 -26.391560 4.389322 0.314258 -59.744160 -0.019425 0.000000 0.000000 0.000000 13.653537 13.560391 7.172606 41.035949 22.098195 3.274834 -5.070720 43.160020 0.512917 0.000000 0.000000 0.000000 
-0.011267 0.960072 0.028340 -0.140096 -6.489615 9.577820 5.784755 -0.326851 -5.210768 -1.160370 0.270549 -5.359579 -0.433867 5.126823 20.208730 0.000000 0.000000 0.000000 -3.699873 0.708575 -7.268797 -6.448046 0.195412 -4.307620 7.387886 6.971533 14.399325 0.000000 0.000000 0.000000 5.136263 0.553300 -7.847098 -0.421453 0.217000 -0.651777 -8.603973 10.437361 -0.215198 16.652025 -9.261614 -12.270035 0.000000 0.000000 0.000000 -12.380717 -17.176171 4.949423 -42.767992 -20.388694 2.766592 -10.646995 -52.936829 5.543377 0.000000 0.000000 0.000000 15.055340 12.144282 6.655712 45.556973 17.877343 2.186374 2.593295 42.953170 3.387565 0.000000 0.000000 0.000000 
-0.011027 0.959969 0.030262 -0.383260 -5.907114 9.650689 5.920908 -0.327623 -5.089667 -0.868156 0.256215 -5.624196 -0.693298 4.822055 20.064906 0.000000 0.000000 0.000000 -3.502777 0.714734 -7.382828 -6.031566 0.214686 -3.851545 6.786936 5.978399 14.305954 0.000000 0.000000 0.000000 5.105281 0.563071 -8.045385 -0.313011 0.164869 0.359702 -8.423933 9.470851 -0.355619 16.446042 -9.117289 -12.335827 0.000000 0.000000 0.000000 -14.159104 -15.564201 4.241845 -44.906989 -13.325408 0.416358 -17.955615 -45.355269 7.905121 0.000000 0.000000 0.000000 15.642974 10.642725 5.786916 50.432089 13.361053 0.809153 8.433662 39.268752 4.957712 0.000000 0.000000 0.000000 
-0.010493 0.959664 0.031668 -0.467187 -5.700323 9.480917 5.747375 -0.317598 -4.680491 -0.448711 0.236898 -5.905947 -0.778750 4.698773 19.909429 0.000000 0.000000 0.000000 -3.634229 0.667851 -6.779776 -5.397916 0.136940 -4.318225 6.361481 5.242380 14.231363 0.000000 0.000000 0.000000 5.044747 0.533325 -7.764599 -0.231270 0.124949 0.417195 -8.272035 8.970875 0.235139 16.040414 -8.815948 -12.592254 0.000000 0.000000 0.000000 -14.636405 -14.518661 3.842161 -47.117802 -7.193706 -2.002124 -19.214562 -38.583922 7.222037 0.000000 0.000000 0.000000 15.585074 8.707613 4.658250 54.614872 8.427896 -1.196753 11.190551 35.712861 5.251405 0.000000 0.000000 0.000000 
-0.009638 0.959332 0.032257 -0.530138 -5.447668 9.439507 5.658843 -0.319026 -4.596567 -0.225796 0.224838 -5.983200 -0.873423 4.561091 19.729743 0.000000 0.000000 0.000000 -3.503608 0.673435 -6.881991 -5.565717 0.184837 -3.892688 6.186222 5.074833 14.020471 0.000000 0.000000 0.000000 4.976994 0.517308 -7.644030 -0.503094 0.251816 0.319506 -8.085301 8.383044 1.031094 16.535180 -9.083000 -13.050671 0.000000 0.000000 0.000000 -14.728351 -13.182450 3.345621 -48.194748 -3.200219 -3.738819 -19.730160 -33.990533 6.578721 0.000000 0.000000 0.000000 15.342442 6.750539 3.502174 57.545663 3.946931 -3.338033 11.981000 31.356124 4.684534 0.000000 0.000000 0.000000 
-0.008573 0.959176 0.031993 -0.449047 -5.946780 8.829992 5.200516 -0.295431 -4.125995 0.182394 0.180537 -5.531656 -0.598427 4.823729 19.512584 0.000000 0.000000 0.000000 -3.614906 0.635202 -6.386948 -5.712385 0.197801 -3.832086 6.426807 5.483927 13.953301 0.000000 0.000000 0.000000 4.580710 0.430140 -6.689349 -0.234164 0.129358 -0.685834 -8.018847 8.388467 2.024060 16.311497 -8.992072 -13.126635 0.000000 0.000000 0.000000 -14.001490 -11.915331 2.905496 -48.514636 -0.853093 -4.848788 -20.091190 -31.854559 6.308472 0.000000 0.000000 0.000000 15.026072 5.498903 2.777728 58.626047 0.319974 -5.213786 12.458307 28.996368 4.381475 0.000000 0.000000 0.000000 
-0.007422 0.959127 0.031251 -0.501328 -6.383113 8.737220 5.253889 -0.292305 -4.224553 -0.022363 0.179209 -5.123932 -0.346114 5.085905 19.400594 0.000000 0.000000 0.000000 -3.512614 0.664078 -6.763180 -5.988746 0.265526 -3.240337 6.598434 5.790805 13.866037 0.000000 0.000000 0.000000 4.680018 0.434065 -6.646547 -0.462106 0.233974 -0.733626 -7.926486 7.858570 2.502011 16.311139 -9.139152 -12.900991 0.000000 0.000000 0.000000 -13.244424 -10.966925 2.696329 -49.440656 0.485722 -5.612084 -19.171313 -30.005542 5.762673 0.000000 0.000000 0.000000 14.463344 4.353609 2.004539 59.036109 -2.478495 -6.623954 12.788845 27.038951 4.072817 0.000000 0.000000 0.000000 
-0.006389 0.959202 0.030347 -0.413578 -6.847202 8.536076 4.965874 -0.278291 -3.927952 0.105353 0.174591 -5.245466 -0.134650 5.329584 19.465258 0.000000 0.000000 0.000000 -3.566003 0.651829 -6.583081 -6.242789 0.258501 -3.479784 6.859446 6.115053 14.013600 0.000000 0.000000 0.000000 4.411248 0.420948 -6.505607 -0.315136 0.166334 -1.451082 -7.856614 7.390895 3.403049 15.917843 -9.122969 -12.408937 0.000000 0.000000 0.000000 -12.907024 -10.442699 2.668444 -49.730322 1.411776 -6.155610 -18.638878 -29.219882 5.557150 0.000000 0.000000 0.000000 13.868851 3.275063 1.305136 58.876294 -4.727601 -7.761643 13.156502 26.495873 4.029933 0.000000 0.000000 0.000000 
-0.005589 0.959397 0.029347 -0.400464 -7.601726 8.716364 4.870376 -0.281313 -4.088942 0.015836 0.179467 -5.200013 0.245581 5.780615 19.623284 0.000000 0.000000 0.000000 -3.534374 0.672564 -6.791527 -6.530717 0.235139 -3.877482 7.287874 6.598579 14.329213 0.000000 0.000000 0.000000 4.360948 0.437757 -6.639631 -0.262268 0.140641 -2.097875 -7.998770 6.964802 3.713204 16.009893 -9.259116 -12.400635 0.000000 0.000000 0.000000 -12.420426 -9.874551 2.610969 -49.729250 1.679872 -6.336075 -19.573869 -28.324215 5.688214 0.000000 0.000000 0.000000 13.428026 2.315822 0.676575 59.008557 -6.407352 -8.621751 13.712166 26.010249 4.029372 0.000000 0.000000 0.000000 
-0.005053 0.959335 0.028324 -0.139143 -7.950053 8.926984 4.401079 -0.292783 -4.073177 0.223544 0.185678 -5.723033 0.377026 5.958633 19.854964 0.000000 0.000000 0.000000 -4.208328 0.681619 -6.814766 -5.964504 0.137436 -4.556304 7.489651 6.774783 14.579182 0.000000 0.000000 0.000000 4.367059 0.478722 -7.079592 -0.486638 0.238594 -2.253962 -8.418505 6.273404 3.709089 16.615631 -9.671952 -12.536303 0.000000 0.000000 0.000000 -11.763796 -9.910511 2.805330 -49.444942 1.263651 -6.157113 -19.514677 -29.288313 5.938531 0.000000 0.000000 0.000000 11.627010 0.981796 -0.057651 58.939544 -8.395793 -9.522319 15.903996 27.382040 4.749269 0.000000 0.000000 0.000000 
-0.005057 0.958981 0.027299 0.004232 -8.182363 8.902435 4.095119 -0.281998 -3.758575 0.452218 0.195813 -6.309801 0.459280 6.061955 19.965735 0.000000 0.000000 0.000000 -4.352682 0.672395 -6.643822 -6.014256 0.096978 -5.050126 7.615710 6.929013 14.650689 0.000000 0.000000 0.000000 4.223453 0.487506 -7.195515 -0.269549 0.140693 -2.764854 -9.085304 5.828354 3.701541 16.743089 -10.092489 -11.487698 0.000000 0.000000 0.000000 -10.789987 -9.365502 2.677583 -48.619754 0.991329 -5.960246 -22.674169 -31.150472 7.259498 0.000000 0.000000 0.000000 10.704512 -0.227573 -0.643819 56.621674 -10.722529 -10.162297 19.520656 29.580220 6.092494 0.000000 0.000000 0.000000 
-0.006016 0.959046 0.026427 0.184698 -8.539035 8.505969 4.228344 -0.254315 -3.408691 -0.081752 0.226742 -6.193928 0.579373 6.203337 20.067435 0.000000 0.000000 0.000000 -5.025587 0.660512 -6.367099 -5.094294 0.048852 -5.049137 7.781814 7.217389 14.623574 0.000000 0.000000 0.000000 4.117854 0.494164 -7.223790 -0.730584 0.336778 -3.218641 -9.229852 5.267088 3.998025 16.927557 -10.643873 -10.260305 0.000000 0.000000 0.000000 -8.884177 -9.112580 2.762826 -46.597804 -0.623541 -5.145170 -27.504220 -35.998968 10.174141 0.000000 0.000000 0.000000 8.076473 -1.452510 -1.100193 53.527985 -13.625126 -10.781587 27.649472 32.317639 9.046900 0.000000 0.000000 0.000000 
-0.008095 0.959008 0.025774 0.262230 -8.727138 8.333631 4.060377 -0.226436 -2.884838 0.263265 0.229544 -6.783335 0.614814 6.273568 20.304854 0.000000 0.000000 0.000000 -5.110368 0.635732 -5.938805 -4.832445 0.082191 -4.424986 7.242266 7.755095 12.292402 0.000000 0.000000 0.000000 3.788357 0.534088 -7.736001 -0.560513 0.261918 -3.113394 -9.803498 4.589566 4.081225 17.421369 -11.425629 -8.943879 0.000000 0.000000 0.000000 -6.911052 -7.857997 2.389684 -41.463432 -0.928704 -4.459527 -37.212721 -43.504544 16.735585 0.000000 0.000000 0.000000 6.154106 -2.331042 -1.360191 46.475565 -16.521777 -10.215419 40.129566 35.387491 14.147322 0.000000 0.000000 0.000000 
